                     The Loved Ones 2009 DVDRIP Xvid-BHRG  

File size         : 696 MiB
Duration          : 1h 24mn
Overall bit rate  : 1 157 Kbps

Video:

Format            : MPEG-4 Visual
Codec ID          : XVID
Duration          : 1h 24mn
Bit rate          : 1 023 Kbps
Width             : 640 pixels
Height            : 256 pixels
Aspect ratio      : 2.500
Frame rate        : 23.976 fps
Stream size       : 616 MiB (88%)

Audio:

Format            : MPEG Audio
Codec ID          : 55
Duration          : 1h 24mn
Bit rate          : 128 Kbps
Channel(s)        : 2 channels
Sampling rate     : 48.0 KHz
Compression mode  : Lossy
Stream size       : 77.0 MiB (11%)

iMDB Info:
 
http://www.imdb.com/title/tt1316536/

Ratings: 6.7/10 from 8,628 users  

When Brent turns down his classmate Lola's invitation to the prom, 
she concocts a wildly violent plan for revenge.

Director: Sean Byrne
Writer  : Sean Byrne
Stars   : Xavier Samuel, Robin McLeavy and Victoria Thaine

Screen:
 
http://www.postimg.com/81000/photo-80299.jpg
 
http://www.postimg.com/81000/photo-80300.jpg
 
http://www.postimg.com/81000/photo-80301.jpg
 
http://www.postimg.com/81000/photo-80302.jpg

